<?xml version="1.0" encoding="UTF-8" standalone="no"?>
<!DOCTYPE svg PUBLIC "-//W3C//DTD SVG 1.1//EN" "http://www.w3.org/Graphics/SVG/1.1/DTD/svg11.dtd">
<svg width="100%" height="100%" viewBox="0 0 1024 1024" version="1.1" xmlns="http://www.w3.org/2000/svg" xmlns:xlink="http://www.w3.org/1999/xlink" xml:space="preserve" xmlns:serif="http://www.serif.com/" style="fill-rule:evenodd;clip-rule:evenodd;stroke-linejoin:round;stroke-miterlimit:2;">
    <g transform="matrix(1.75561,0,0,1.75561,-386.618,-397.54)">
        <g id="Bottom-Circle" serif:id="Bottom Circle" transform="matrix(1.14659,0,0,1.14659,-55.8928,-116.559)">
            <circle cx="383.364" cy="738.906" r="36.619" style="fill:rgb(31,194,235);"/>
        </g>
        <g id="Top-Circle" serif:id="Top Circle" transform="matrix(1.04167,0,0,1.04167,68.6246,-250.736)">
            <circle cx="383.364" cy="738.906" r="36.619" style="fill:rgb(31,194,235);"/>
        </g>
        <g transform="matrix(0.569602,0,0,0.569602,220.219,226.439)">
            <path d="M358.571,65.069L596.09,67.541C714.98,70.382 810.76,184.041 810.76,323.63C810.76,463.218 714.98,578.854 596.09,581.695L485.822,581.695C516.977,575.297 540.437,547.697 540.437,514.66C540.437,481.624 516.977,454.024 485.822,447.626L555.263,446.585C556.639,446.585 572.718,445.154 574.287,445.007C630.231,439.766 663.005,387.396 663.005,320.51C663.005,250.141 613.807,194.384 553.66,194.384L358.571,193.009L358.571,828.86L358.479,828.86C350.482,796.801 321.472,773.021 286.953,773.021C253.779,773.021 225.695,794.982 216.456,825.15L216.505,65.069L358.571,65.069Z" style="fill:rgb(31,194,235);"/>
        </g>
    </g>
</svg>
